<svg width="10" height="10" viewBox="0 0 10 10" fill="none" xmlns="http://www.w3.org/2000/svg">
<g id="plus" clip-path="url(#clip0_352_816)">
<path id="Vector" d="M9.14648 4.1543H5.96094V0.853516C5.96094 0.380859 5.57812 -0.00195312 5.10547 -0.00195312C4.63281 -0.00195312 4.25 0.380859 4.25 0.853516V4.1543H0.851562C0.382812 4.1543 0 4.53711 0 5.00977C0 5.48242 0.382812 5.86523 0.855469 5.86523H4.25391V9.14648C4.25391 9.61914 4.63672 10.002 5.10937 10.002C5.58203 10.002 5.96484 9.61914 5.96484 9.14648V5.86523H9.15039C9.62305 5.86523 10.0059 5.48242 10.0059 5.00977C10 4.53711 9.61914 4.1543 9.14648 4.1543Z" fill="#006DAF"/>
</g>
<defs>
<clipPath id="clip0_352_816">
<rect width="10" height="10" fill="white"/>
</clipPath>
</defs>
</svg>
